<?xml version="1.0" encoding="utf-8"?>
<!-- Generator: Adobe Illustrator 16.0.2, SVG Export Plug-In . SVG Version: 6.00 Build 0)  -->
<!DOCTYPE svg PUBLIC "-//W3C//DTD SVG 1.1//EN" "http://www.w3.org/Graphics/SVG/1.1/DTD/svg11.dtd">
<svg version="1.1" id="Layer_1" xmlns="http://www.w3.org/2000/svg" xmlns:xlink="http://www.w3.org/1999/xlink" x="0px" y="0px"
	 width="289.033px" height="303.718px" viewBox="0 0 289.033 303.718" enable-background="new 0 0 289.033 303.718"
	 xml:space="preserve">
<g>
	<polygon fill="#CEE5F2" points="76.475,222.82 72.879,214.881 108.256,155.297 111.851,157.43 	"/>
	
		<rect x="75.235" y="144.93" transform="matrix(0.8599 0.5105 -0.5105 0.8599 102.5109 -14.312)" fill="#CEE5F2" width="4.182" height="69.296"/>
	<g>
		<defs>
			<path id="SVGID_1_" d="M40.876,288.953l-26.805-15.914c-6.579-3.906-8.779-12.391-4.925-19
				c16.556-28.389,29.924-52.795,49.284-77.07c4.342-5.443,12.029-6.859,18.018-3.305l21.76,12.92
				c6.616,3.928,8.795,12.477,4.867,19.092l-43.107,78.41C56.04,290.703,47.492,292.881,40.876,288.953z"/>
		</defs>
		<use xlink:href="#SVGID_1_"  overflow="visible" fill="#D8D8D8"/>
		<clipPath id="SVGID_2_">
			<use xlink:href="#SVGID_1_"  overflow="visible"/>
		</clipPath>
		<path id="XMLID_25_" clip-path="url(#SVGID_2_)" fill="#F4F4F4" d="M31.628,281.666L4.823,265.752
			c-6.579-3.906-8.779-12.391-4.925-19c16.556-28.389,29.924-52.795,49.285-77.07c4.342-5.443,12.029-6.859,18.017-3.305
			l21.76,12.92c6.616,3.928,8.796,12.477,4.867,19.092l-43.106,78.41C46.792,283.416,38.244,285.594,31.628,281.666z"/>
	</g>
	<circle fill="#80A1AF" cx="8.27" cy="278.669" r="6.754"/>
	<path fill="#D8D8D8" d="M11.011,273.412l3.736-6.293l-6.608-3.924l-3.317,5.588c-0.402,0.676-0.629,1.443-0.662,2.23l-0.28,6.76
		l0.003,0.002c-0.18,1.633,0.586,3.295,2.101,4.178c1.934,1.125,4.469,0.543,5.713-1.314c1.153-1.725,0.891-3.941-0.458-5.352
		C10.753,274.779,10.651,274.016,11.011,273.412z"/>
	<circle fill="#80A1AF" cx="37.131" cy="295.804" r="6.754"/>
	<path fill="#D8D8D8" d="M40.434,290.881l3.736-6.293l6.608,3.922l-3.317,5.588c-0.402,0.678-0.966,1.244-1.642,1.648l-5.802,3.484
		l-0.002-0.002c-1.347,0.939-3.174,1.063-4.674,0.154c-1.913-1.158-2.617-3.662-1.581-5.645c0.961-1.838,3.034-2.668,4.917-2.16
		C39.356,291.762,40.075,291.486,40.434,290.881z"/>
	<path fill="#D8D8D8" d="M53.095,283.609c-4.029-0.355-7.285-3.061-10.565-2.773c-3.464,0.305-6.923-0.656-9.913-2.432l-5.347-3.174
		c-2.99-1.775-5.489-4.352-6.881-7.539c-1.317-3.018-5.252-4.582-7.493-7.949c-2.994-4.496,0.239-12.455,0.239-12.455l-4.272,7.195
		c-3.749,6.314-1.669,14.473,4.646,18.223l3.678,2.184l1.573,0.934l17.412,10.338l2.873,1.705l2.378,1.412
		c6.314,3.75,14.473,1.67,18.222-4.645l4.272-7.195C63.916,277.438,58.476,284.086,53.095,283.609z"/>
	<path fill="#D8D8D8" d="M110.273,160.957l-18.124-10.464c-1.137-0.656-1.526-2.109-0.87-3.246l0.272-0.473
		c0.656-1.137,2.109-1.525,3.246-0.869l18.125,10.464c1.136,0.656,1.525,2.109,0.869,3.246l-0.272,0.473
		C112.863,161.225,111.41,161.613,110.273,160.957z"/>
</g>
<g>
	<path fill="#E09841" d="M200.244,149.806c0,0,8.668-2.572,9.146-4.824c0.477-2.252-0.655-9.539-0.655-9.539l-5.802-0.85
		l-4.729,5.387L200.244,149.806z"/>
	<path fill="#E8997E" d="M279.147,45.576c0,0,2.225,0.997,3.145,1.917c0.921,0.921,0.537,5.216-0.767,5.676
		c-1.304,0.461-1.918-1.073-1.956-1.688c-0.038-0.613-1.956-2.377-3.26-2.99C275.006,47.877,279.147,45.576,279.147,45.576z"/>
	<path fill="#F4BD95" d="M270.286,43.923c0,0,13.294-5.216,17.384-10.533c0,0,2.045,1.125,1.125,3.271
		c-0.92,2.148-9.408,10.533-11.965,11.76c0,0,5.934,1.668,4.911,3.713s-5.831,4.06-9.206,3.855
		C269.161,55.784,270.286,43.923,270.286,43.923z"/>
	<g>
		<defs>
			<path id="XMLID_21_" d="M136.5,77.487c-10.103,3.637-2.566,54.252-6.299,60.488c-3.733,6.238,5.188,30.269,37.591,7.172
				c32.401-23.098,15.075-62.994,15.075-62.994L136.5,77.487z"/>
		</defs>
		<use xlink:href="#XMLID_21_"  overflow="visible" fill="#BA8E5A"/>
		<clipPath id="XMLID_6_">
			<use xlink:href="#XMLID_21_"  overflow="visible"/>
		</clipPath>
		<path clip-path="url(#XMLID_6_)" fill="#775530" d="M135.882,114.194c4.409,9.368,4.593,15.051,0.368,23.781
			c-4.226,8.73-0.225,19.86,20.301,13.828c20.525-6.033,28.927-33.018,28.927-33.018l-19.863-17.166L135.882,114.194z"/>
	</g>
	<path fill="#D8D8D8" d="M136.343,61.607c-7.26,2.294-15.245,13.328-15.907,16.961c-0.661,3.632-0.862,11.076,7.942,7.909
		c8.806-3.168,18.701-16.416,18.701-16.416L136.343,61.607z"/>
	<path fill="#FCFCFC" d="M176.343,65.022c-18.209,11.479-47.965,21.455-47.965,21.455s11.954-4.638,10.06-15.529
		c-1.159-6.67-7.71-7.069-8.694-4.623c-0.984,2.447-2.306,4.531-4.684,5.318c-2.377,0.787-8.724-0.186-7.421-3.494
		s8.719-15.182,41.152-16.054C191.224,51.224,176.343,65.022,176.343,65.022z"/>
	<path fill="#538CB7" d="M170.627,159.158c0.267,10.193,1.271,27.744-6.469,39.811c-6.244,9.734-8.641,40.619-0.343,58.68h18.105
		c0,0,2.64-50.957,10.938-62.916c8.298-11.959,18.061-44.688,14.399-56.757c-3.661-12.067-29.143,2.088-29.143,2.088
		L170.627,159.158z"/>
	<g>
		<path fill="#A57A4A" d="M183.166,265.801c0.045-1.201,3.094,8.369,2.78,15.166c-0.228,4.945,4.097,6.025,7.635,5.316
			c10.661-2.135,17.37,0.936,15.504,10.521c-7.721,4.959-28.566,1.621-47.341-0.404c0,0-0.05-8.867,1.505-13.523
			c1.555-4.658-1.261-15.16-1.261-15.16L183.166,265.801z"/>
		<path fill="#775530" d="M209.389,294.266c-11.54,8.945-25.905-0.734-38.438,1.93c-8.154,1.734-2.239-8.209-8.601-9.182
			c-0.476,4.211-0.707,8.422-0.694,12.637c0.005,1.396,1.122,2.533,2.517,2.545l42.413,0.363c1.366,0.012,2.497-1.063,2.555-2.428
			L209.389,294.266z"/>
		<path fill="none" stroke="#775530" stroke-width="1.1558" stroke-linecap="round" stroke-miterlimit="10" d="M186.369,283.621
			c0,0-1.648,0.236-2.694,2.285"/>
		<path fill="none" stroke="#775530" stroke-width="1.1558" stroke-linecap="round" stroke-miterlimit="10" d="M185.997,279.939
			c0,0-1.854-0.752-3.373,0.471"/>
		<path fill="none" stroke="#775530" stroke-width="1.1558" stroke-linecap="round" stroke-miterlimit="10" d="M188.478,285.809
			c0,0-1.379,0.813-1.397,2.939"/>
		<path fill="none" stroke="#775530" stroke-width="1.1558" stroke-linecap="round" stroke-miterlimit="10" d="M191.931,286.475
			c0,0-1.275,1.145-0.126,3.205"/>
		<path fill="none" stroke="#775530" stroke-width="0.5779" stroke-linecap="round" stroke-miterlimit="10" d="M199.803,285.906
			c0,0-4.631-1.057-6.116,6.813c-1.489,7.887-11.206,4.416-11.206,4.416"/>
		<path fill="none" stroke="#775530" stroke-width="0.5779" stroke-linecap="round" stroke-miterlimit="10" d="M164.567,281.355
			c0,0,3.519-0.906,4.8,2.119c1.282,3.027-4.07,9.107,2.531,9.852"/>
	</g>
	<path fill="#7BB0DD" d="M163.562,255.668c2.204-2.564,18.037-4.641,20.751-2.266c1.315,1.15,1.199,8.773,1.793,11.234
		s1.053,7.947-5.373,9.973c-6.427,2.025-18.547,2.646-19.379-3.135C160.522,265.693,161.636,257.908,163.562,255.668z"/>
	<g>
		<path fill="#BA8E5A" d="M160.093,263.156c1.112-0.453-6.358,6.26-12.684,8.77c-4.601,1.826-3.808,6.213-1.706,9.146
			c6.33,8.84,6.29,16.217-3.217,18.459c-7.693-5-13.224-25.373-19.095-43.32c0,0,8.061-3.691,12.945-4.189
			s13.301-7.383,13.301-7.383L160.093,263.156z"/>
		<path fill="#775530" d="M144.926,298.764c-12.897-6.842-9.98-23.916-17.563-34.246c-4.934-6.721,6.563-5.416,4.833-11.615
			c-4.034,1.299-7.969,2.818-11.805,4.564c-1.271,0.576-1.848,2.063-1.285,3.34l17.107,38.811c0.552,1.252,1.995,1.84,3.264,1.33
			L144.926,298.764z"/>
		<path fill="none" stroke="#775530" stroke-width="1.1558" stroke-linecap="round" stroke-miterlimit="10" d="M145.165,273.402
			c0,0-0.894-1.404-3.191-1.516"/>
		<path fill="none" stroke="#775530" stroke-width="1.1558" stroke-linecap="round" stroke-miterlimit="10" d="M148.368,271.549
			c0,0-0.077-1.998-1.815-2.881"/>
		<path fill="none" stroke="#775530" stroke-width="1.1558" stroke-linecap="round" stroke-miterlimit="10" d="M144.037,276.225
			c0,0-1.308-0.924-3.253-0.066"/>
		<path fill="none" stroke="#775530" stroke-width="1.1558" stroke-linecap="round" stroke-miterlimit="10" d="M144.851,279.646
			c0,0-1.568-0.691-2.974,1.203"/>
		<path fill="none" stroke="#775530" stroke-width="0.5779" stroke-linecap="round" stroke-miterlimit="10" d="M148.605,286.588
			c0,0-0.942-4.656-8.726-2.773c-7.801,1.885-8.632-8.4-8.632-8.4"/>
		<path fill="none" stroke="#775530" stroke-width="0.5779" stroke-linecap="round" stroke-miterlimit="10" d="M138.266,252.598
			c0,0,2.273,2.834,0.042,5.248c-2.231,2.412-9.976,0.033-7.939,6.357"/>
	</g>
	<g>
		<defs>
			<path id="SVGID_3_" d="M158.45,144.378c0,0-5.494,26.423,29.894,56.708c0,0-27.699,23.531-32.808,41.861l13.9,11.717
				c0,0,42.744-36.354,46.951-42.363c4.206-6.008-7.425-52.563-26.565-71.792S158.45,144.378,158.45,144.378z"/>
		</defs>
		<use xlink:href="#SVGID_3_"  overflow="visible" fill="#7BB0DD"/>
		<clipPath id="SVGID_4_">
			<use xlink:href="#SVGID_3_"  overflow="visible"/>
		</clipPath>
		
			<path clip-path="url(#SVGID_4_)" fill="none" stroke="#538CB7" stroke-width="1.0245" stroke-linecap="round" stroke-miterlimit="10" d="
			M190.867,198.975c0,0,1.473-3.814,4.93-5.139"/>
		
			<path clip-path="url(#SVGID_4_)" fill="none" stroke="#538CB7" stroke-width="1.0245" stroke-linecap="round" stroke-miterlimit="10" d="
			M190.734,199.137c0,0-0.493-4.059,1.936-6.854"/>
		
			<path clip-path="url(#SVGID_4_)" fill="none" stroke="#538CB7" stroke-width="1.0245" stroke-linecap="round" stroke-miterlimit="10" d="
			M170.664,142.989c0,0,11.457,39.194,18.894,46.028"/>
		
			<path clip-path="url(#SVGID_4_)" fill="none" stroke="#538CB7" stroke-width="1.0245" stroke-linecap="round" stroke-miterlimit="10" d="
			M191.367,205.1c0,0-20.101,15.855-30.553,35.754"/>
	</g>
	<g>
		<defs>
			<path id="SVGID_5_" d="M159.17,131.847c0,0-3.331,7.639-6.214,10.293c0,0,7.192,8.338,20.253,4.736
				c13.061-3.6,23.862-8.063,30.874-7.063c7.012,0.998,5.307,5.168,5.307,5.168s4.737-8.338-2.653-21.035
				s-0.308-48.872-0.308-48.872l-18.899-16.886l-10.551-2.727l-20.892,7.324l5.103,28.434L159.17,131.847z"/>
		</defs>
		<use xlink:href="#SVGID_5_"  overflow="visible" fill="#EEBD4E"/>
		<clipPath id="SVGID_6_">
			<use xlink:href="#SVGID_5_"  overflow="visible"/>
		</clipPath>
		<path clip-path="url(#SVGID_6_)" fill="#E09841" d="M152.956,41.239c0,0,21.163,10.045,30.902,33.154
			c6.061,14.38,20.075,65.404-25.504,94.364c-45.578,28.961-62.941,4.01-62.941,4.01l6.172-56.022l31.098-40.594l41.53-20.689"/>
	</g>
	<g>
		<defs>
			<path id="XMLID_17_" d="M195.71,57.259c0,0,20.45,3.537,41.587-2.715c12.98-3.839,31.011-14.707,33.595-10.948
				s3.524,12.245,1.175,16.107s-21.698,25.473-63.517,27.822L195.71,57.259z"/>
		</defs>
		<use xlink:href="#XMLID_17_"  overflow="visible" fill="#75C392"/>
		<clipPath id="XMLID_7_">
			<use xlink:href="#XMLID_17_"  overflow="visible"/>
		</clipPath>
		<path clip-path="url(#XMLID_7_)" fill="#55A06E" d="M192.253,57.794c0,0,24.131,8.666,30.752,33.648
			c6.622,24.984-18.54,27.412-18.54,27.412l-19.714-24.721V68.31L192.253,57.794"/>
		<path clip-path="url(#XMLID_7_)" fill="none" stroke="#55A06E" stroke-width="1.0245" stroke-miterlimit="10" d="M218.728,57.908
			c0,0,7.794,3.39,9.716,12.249c2.188,10.094-2.354,15.089-2.354,15.089"/>
		<path clip-path="url(#XMLID_7_)" fill="none" stroke="#55A06E" stroke-width="1.0245" stroke-miterlimit="10" d="M234.561,54.028
			c0,0,7.795,3.39,9.717,12.248c2.188,10.094-2.354,15.09-2.354,15.09"/>
		<path clip-path="url(#XMLID_7_)" fill="none" stroke="#55A06E" stroke-width="1.0245" stroke-miterlimit="10" d="M249.859,46.404
			c0,0,7.795,3.39,9.716,12.249c2.188,10.093-2.354,15.088-2.354,15.088"/>
	</g>
	<path fill="#75C392" d="M178.116,52.069c0,0,16.294-2.559,26.106,12.328c8.749,13.273,12.322,31.386,10.376,46.244
		c-1.26,9.619-0.354,19.617-6.548,18.834C201.855,128.694,208.063,91.545,178.116,52.069z"/>
	<path fill="#775530" d="M179.85,54.081c0,0,23.804,0.5,34.621,38.846c0,0,2.913-15.426-4.349-27.756
		C203.292,53.573,186.613,43.873,179.85,54.081z"/>
	<g>
		<path fill="#55A06E" d="M169.986,44.052c0,0-29.22,1.809-13.541,23.014c0,0,21.598-3.1,19.961-14.885
			C174.769,40.396,169.986,44.052,169.986,44.052z"/>
		<g>
			<defs>
				<path id="XMLID_13_" d="M191.816,13.501c0,0-1.609-12.887-11.102-13.472c-9.493-0.585-28.533,7.676-27.764,14.113
					c0.771,6.437,5.533,14.207,5.533,14.207L191.816,13.501z"/>
			</defs>
			<use xlink:href="#XMLID_13_"  overflow="visible" fill="#F4BD95"/>
			<clipPath id="XMLID_8_">
				<use xlink:href="#XMLID_13_"  overflow="visible"/>
			</clipPath>
			<path clip-path="url(#XMLID_8_)" fill="#D8D8D8" d="M154.399,27.589l0.089-7.535c0,0,16.229-15.753,39.71-13.393l0.063,7.867
				L154.399,27.589z"/>
		</g>
		
			<ellipse transform="matrix(-0.3596 -0.9331 0.9331 -0.3596 212.7221 201.6271)" fill="#BA685A" cx="175.547" cy="27.82" rx="11.547" ry="41.359"/>
		<path fill="#21344F" d="M167.622,28.353c0,0-15.723,4.547-9.872,17.236c3.983,8.639,10.99,3.336,10.99,3.336l3.236-12.648
			L167.622,28.353z"/>
		<g>
			<defs>
				<path id="XMLID_10_" d="M189.822,42.897c0,0-8.796,13.244-5.091,19.109c0,0-11.142,2.854-15.749-7.384
					c0,0,0.526-10.188-0.554-13.275c-1.081-3.087,17.856,0.935,17.856,0.935L189.822,42.897z"/>
			</defs>
			<use xlink:href="#XMLID_10_"  overflow="visible" fill="#E8997E"/>
			<clipPath id="XMLID_9_">
				<use xlink:href="#XMLID_10_"  overflow="visible"/>
			</clipPath>
			<path clip-path="url(#XMLID_9_)" fill="#BA685A" d="M176.159,47.204c0,0,2.016,5.754,11.654,4.877
				c9.639-0.876-1.528-9.799-1.528-9.799l-15.57,0.746"/>
		</g>
		<g>
			<defs>
				<path id="XMLID_14_" d="M192.586,19.251c0,0,5.17,15.904,1.84,29.212c-3.488,1.574-18.415,1.95-23.779-2.371
					c-3.303-2.66-3.664-6.256-3.664-6.256s-4.892-0.939-5.286-5.353s5.926-6.132,5.926-6.132S177.447,19.072,192.586,19.251z"/>
			</defs>
			<use xlink:href="#XMLID_14_"  overflow="visible" fill="#F4BD95"/>
			<clipPath id="XMLID_11_">
				<use xlink:href="#XMLID_14_"  overflow="visible"/>
			</clipPath>
			<path clip-path="url(#XMLID_11_)" fill="#21344F" d="M188.742,19.41c0,0-8.597,12.754-21.12,8.942
				c-12.524-3.81,10.151-8.556,10.151-8.556l9.834-2.294L188.742,19.41"/>
		</g>
	</g>
	<g>
		<defs>
			<path id="XMLID_15_" d="M156.35,60.736c0,0,4.693-9.418,7.871-8.806c3.179,0.611,13.097,3.844,14.311,8.806
				c1.215,4.962,12.887,44.634,7.658,62.85c-5.229,18.216-27.089,15.839-34.173,10.651c-7.085-5.186-2.834-27.653-1.215-35.143
				C152.421,91.606,156.35,60.736,156.35,60.736z"/>
		</defs>
		<use xlink:href="#XMLID_15_"  overflow="visible" fill="#75C392"/>
		<clipPath id="XMLID_12_">
			<use xlink:href="#XMLID_15_"  overflow="visible"/>
		</clipPath>
		<path clip-path="url(#XMLID_12_)" fill="#55A06E" d="M161.001,94.179c0.927,7.174-0.537,27.561-17.234,35.756
			c-16.696,8.195,0.98-30.345,0.98-30.345L161.001,94.179z"/>
	</g>
	<g>
		<defs>
			<path id="XMLID_16_" d="M160.062,55.556c4.374-1.359,9.818,12.244,9.347,20.038c-0.473,7.793-31.645,63.124-55.804,72.216
				c0,0-5.092,0.129-9.722-4.33c-3.719-3.584-4.477-9.262-1.893-13.732C111.812,112.749,136.135,62.996,160.062,55.556z"/>
		</defs>
		<use xlink:href="#XMLID_16_"  overflow="visible" fill="#75C392"/>
		<clipPath id="XMLID_22_">
			<use xlink:href="#XMLID_16_"  overflow="visible"/>
		</clipPath>
		<path clip-path="url(#XMLID_22_)" fill="none" stroke="#55A06E" stroke-width="1.0245" stroke-miterlimit="10" d="M130.401,81.586
			c0,0,8.616-7.336,19.163-1.593c7.082,3.856,12.203,11.918,11.36,18.203"/>
		<path clip-path="url(#XMLID_22_)" fill="none" stroke="#55A06E" stroke-width="1.0245" stroke-miterlimit="10" d="M121.479,95.39
			c0,0,8.615-7.336,19.162-1.593c7.082,3.856,12.203,11.919,11.36,18.204"/>
		<path clip-path="url(#XMLID_22_)" fill="none" stroke="#55A06E" stroke-width="1.0245" stroke-miterlimit="10" d="
			M110.262,108.876c0,0,8.616-7.336,19.162-1.592c7.083,3.855,12.203,11.918,11.36,18.203"/>
		<path clip-path="url(#XMLID_22_)" fill="none" stroke="#55A06E" stroke-width="1.0245" stroke-miterlimit="10" d="
			M104.366,125.097c0,0,6.972-5.938,15.506-1.29c5.731,3.121,9.875,9.646,9.193,14.731"/>
	</g>
	<path fill="#95C9EF" d="M155.536,240.465c3.382-0.014,15.317,10.594,15.3,14.199c-0.009,1.748-5.846,6.652-7.317,8.711
		c-1.472,2.061-5.317,6.002-11.057,2.469c-5.738-3.531-14.145-12.285-10.318-16.699C145.969,244.73,152.582,240.477,155.536,240.465
		z"/>
	<path fill="#775530" d="M148.054,62.791c0,0,9.669-2.11,17.561,11.909c7.892,14.021-4.497,17.086-8.78,26.936
		c0,0,3.572-1.403,10.958-7.939c3.729-3.301,14.129-14.301,6.867-26.631C167.829,55.468,150.643,51.183,148.054,62.791z"/>
	<g>
		<defs>
			<path id="XMLID_23_" d="M105.804,141.202c-1.847-1.006-4.096-0.908-5.859,0.236c-4.416,2.869-9.056,7.553-6.764,11.222
				c2.843,4.547,10.234,9.908,13.077,8.791c1.515-0.596,2.625-1.922,3.333-3.031c0.625-0.982,0.583-2.244-0.114-3.174l-1.087-1.449
				c0,0,1.97,1.422,2.762-0.143c0.791-1.563,0.563-7.249,0.321-8.528C111.326,144.349,108.217,142.517,105.804,141.202z"/>
		</defs>
		<use xlink:href="#XMLID_23_"  overflow="visible" fill="#F4BD95"/>
		<clipPath id="XMLID_24_">
			<use xlink:href="#XMLID_23_"  overflow="visible"/>
		</clipPath>
		<path clip-path="url(#XMLID_24_)" fill="#E8997E" d="M109.524,142.034c0.117,2.818,1.135,9.615,0,10.688
			c-1.135,1.074-1.292,2.252-1.292,2.252l0,0c-1.085,2.973-4.335,4.559-7.336,3.557c-1.803-0.602-4.157-1.543-7.23-2.99
			c-11.981-5.638-1.091,15.576-1.091,15.576l28.695,7.045l6.108-28.729L109.524,142.034z"/>
	</g>
</g>
</svg>
